Coordinates
version=1
nRows=12
nColumns=38
inDegrees=yes

Units are S.I. units (second, meters, Newtons, ...)
Angles are in degrees.

endheader
time	pelvis_tilt	pelvis_list	pelvis_rotation	pelvis_tx	pelvis_ty	pelvis_tz	hip_flexion_r	hip_adduction_r	hip_rotation_r	knee_angle_r	ankle_angle_r	subtalar_angle_r	mtp_angle_r	hip_flexion_l	hip_adduction_l	hip_rotation_l	knee_angle_l	ankle_angle_l	subtalar_angle_l	mtp_angle_l	lumbar_extension	lumbar_bending	lumbar_rotation	arm_flex_r	arm_add_r	arm_rot_r	elbow_flex_r	pro_sup_r	wrist_flex_r	wrist_dev_r	arm_flex_l	arm_add_l	arm_rot_l	elbow_flex_l	pro_sup_l	wrist_flex_l	wrist_dev_l
      4.60500000	      1.21155361	    -11.15742934	     85.45525237	     -0.18943351	      1.13732888	     -0.33763222	    -16.76597767	      1.97237027	      6.70775214	    -27.74165918	    -17.17874680	      0.00000000	      0.00000000	     32.76282680	     -3.30514632	      2.04054135	     -9.76876358	     -6.18952320	      0.00000000	      0.00000000	     -7.69432274	     -4.39595066	     27.24892872	      0.00000000	      0.00000000	      0.00000000	     90.00000000	     90.00000000	      0.00000000	      0.00000000	      0.00000000	      0.00000000	      0.00000000	     90.00000000	     90.00000000	      0.00000000	      0.00000000
      4.61000000	      1.51816011	    -10.82982040	     85.23831800	     -0.18899401	      1.13633165	     -0.33854304	    -16.79765131	      2.19293368	      7.00902894	    -30.10691344	    -16.93211944	      0.00000000	      0.00000000	     32.01609196	     -3.69049133	      1.75839952	     -8.22764104	     -6.38979214	      0.00000000	      0.00000000	     -8.02088153	     -4.19990836	     27.50049408	      0.00000000	      0.00000000	      0.00000000	     90.00000000	     90.00000000	      0.00000000	      0.00000000	      0.00000000	      0.00000000	      0.00000000	     90.00000000	     90.00000000	      0.00000000	      0.00000000
      4.61500000	      1.74411032	    -10.54331366	     85.03428301	     -0.18860920	      1.13508758	     -0.33931291	    -16.69561865	      2.33496285	      7.18529623	    -32.61686177	    -16.77380081	      0.00000000	      0.00000000	     31.38631821	     -3.97340627	      1.41455160	     -6.95796473	     -6.55416186	      0.00000000	      0.00000000	     -8.30362881	     -4.09530640	     27.69079421	      0.00000000	      0.00000000	      0.00000000	     90.00000000	     90.00000000	      0.00000000	      0.00000000	      0.00000000	      0.00000000	      0.00000000	     90.00000000	     90.00000000	      0.00000000	      0.00000000
      4.62000000	      1.88799126	    -10.29883522	     84.84774984	     -0.18828511	      1.13356852	     -0.33994823	    -16.46237205	      2.39827812	      7.25020620	    -35.26548429	    -16.66913860	      0.00000000	      0.00000000	     30.87358853	     -4.14949285	      1.02476623	     -5.95706153	     -6.68709875	      0.00000000	      0.00000000	     -8.54007466	     -4.08354311	     27.81802190	      0.00000000	      0.00000000	      0.00000000	     90.00000000	     90.00000000	      0.00000000	      0.00000000	      0.00000000	      0.00000000	      0.00000000	     90.00000000	     90.00000000	      0.00000000	      0.00000000
      4.62500000	      1.95005248	    -10.09607074	     84.68090737	     -0.18802212	      1.13174850	     -0.34045454	    -16.10355131	      2.38352368	      7.22098073	    -38.04464447	    -16.58426083	      0.00000000	      0.00000000	     30.47451008	     -4.21886533	      0.60663935	     -5.21818432	     -6.79820780	      0.00000000	      0.00000000	     -8.72947968	     -4.16385618	     27.88212446	      0.00000000	      0.00000000	      0.00000000	     90.00000000	     90.00000000	      0.00000000	      0.00000000	      0.00000000	      0.00000000	      0.00000000	     90.00000000	     90.00000000	      0.00000000	      0.00000000
      4.63000000	      1.93182888	     -9.93359339	     84.53321840	     -0.18781498	      1.12961132	     -0.34083430	    -15.62721055	      2.29149307	      7.11697629	    -40.94361005	    -16.48903520	      0.00000000	      0.00000000	     30.18275500	     -4.18553678	      0.17908485	     -4.73148263	     -6.90030261	      0.00000000	      0.00000000	     -8.87258825	     -4.33362225	     27.88449369	      0.00000000	      0.00000000	      0.00000000	     90.00000000	     90.00000000	      0.00000000	      0.00000000	      0.00000000	      0.00000000	      0.00000000	     90.00000000	     90.00000000	      0.00000000	      0.00000000
      4.63500000	      1.83581128	     -9.80898901	     84.40139052	     -0.18765410	      1.12715393	     -0.34108588	    -15.04315239	      2.12276381	      6.95829346	    -43.94894073	    -16.35904810	      0.00000000	      0.00000000	     29.98985910	     -4.05645714	     -0.23855341	     -4.48524081	     -7.00682679	      0.00000000	      0.00000000	     -8.97137646	     -4.58864128	     27.82755294	      0.00000000	      0.00000000	      0.00000000	     90.00000000	     90.00000000	      0.00000000	      0.00000000	      0.00000000	      0.00000000	      0.00000000	     90.00000000	     90.00000000	      0.00000000	      0.00000000
      4.64000000	      1.66518396	     -9.71898372	     84.27976345	     -0.18752803	      1.12438484	     -0.34120518	    -14.36243207	      1.87766462	      6.76448483	    -47.04479599	    -16.17665650	      0.00000000	      0.00000000	     29.88625742	     -3.84037298	     -0.62784395	     -4.46731374	     -7.12892939	      0.00000000	      0.00000000	     -9.02887272	     -4.92338951	     27.71428000	      0.00000000	      0.00000000	      0.00000000	     90.00000000	     90.00000000	      0.00000000	      0.00000000	      0.00000000	      0.00000000	      0.00000000	     90.00000000	     90.00000000	      0.00000000	      0.00000000
      4.64500000	      1.42363766	     -9.65954791	     84.16116775	     -0.18742741	      1.12131877	     -0.34119078	    -13.59703081	      1.55651792	      6.55341638	    -50.21360882	    -15.93125906	      0.00000000	      0.00000000	     29.86248846	     -3.54669004	     -0.97299878	     -4.66663278	     -7.27252696	      0.00000000	      0.00000000	     -9.04909269	     -5.33124826	     27.54771500	      0.00000000	      0.00000000	      0.00000000	     90.00000000	     90.00000000	      0.00000000	      0.00000000	      0.00000000	      0.00000000	      0.00000000	     90.00000000	     90.00000000	      0.00000000	      0.00000000
      4.65000000	      1.11529539	     -9.62597572	     84.03818042	     -0.18734897	      1.11796967	     -0.34105065	    -12.75960362	      1.16005213	      6.34033838	    -53.43697299	    -15.61896944	      0.00000000	      0.00000000	     29.91039940	     -3.18445067	     -1.26277325	     -5.07462922	     -7.43569929	      0.00000000	      0.00000000	     -9.03709699	     -5.80473472	     27.33050673	      0.00000000	      0.00000000	      0.00000000	     90.00000000	     90.00000000	      0.00000000	      0.00000000	      0.00000000	      0.00000000	      0.00000000	     90.00000000	     90.00000000	      0.00000000	      0.00000000
      4.65500000	      0.74477362	     -9.61297827	     83.90459143	     -0.18729856	      1.11434465	     -0.34080747	    -11.86314531	      0.68986734	      6.13721946	    -56.69654249	    -15.24186267	      0.00000000	      0.00000000	     30.02409098	     -2.76148400	     -1.49219513	     -5.68641807	     -7.60676978	      0.00000000	      0.00000000	     -8.99914326	     -6.33576583	     27.06454876	      0.00000000	      0.00000000	      0.00000000	     90.00000000	     90.00000000	      0.00000000	      0.00000000	      0.00000000	      0.00000000	      0.00000000	     90.00000000	     90.00000000	      0.00000000	      0.00000000
      4.66000000	      0.31735053	     -9.61485103	     83.75681879	     -0.18729181	      1.11044047	     -0.34049854	    -10.92044347	      0.14885119	      5.95238115	    -59.97476889	    -14.80693293	      0.00000000	      0.00000000	     30.20033263	     -2.28377080	     -1.66373591	     -6.50157890	     -7.76340760	      0.00000000	      0.00000000	     -8.94286694	     -6.91597549	     26.75074822	      0.00000000	      0.00000000	      0.00000000	     90.00000000	     90.00000000	      0.00000000	      0.00000000	      0.00000000	      0.00000000	      0.00000000	     90.00000000	     90.00000000	      0.00000000	      0.00000000
